<svg xmlns="http://www.w3.org/2000/svg"  viewBox="0 0 64 64" width="64px" height="64px" baseProfile="basic"><path fill="#008aa9" d="M37.742,22.303C39.597,21.852,41,22,41,22s1.764-1.584,4.764-1.584s2.494,0.64,2.494-2.36	s-0.506-4.989-9.506-4.989c-16,0-18.584,10.742-22.584,18.742S6.73,40.775,6.73,40.775C6.893,40.612,4,47,4,47h56v-5.134	c0-1.542-1.171-2.847-2.707-2.982C42.481,37.589,38.377,24.794,37.742,22.303z"/><ellipse cx="32" cy="61" opacity=".3" rx="25" ry="3"/><path fill="#68e5fd" d="M55.004,44.199c-1.125,0.723-2.188,1.796-4.342,1.796s-3.217-0.683-4.342-1.406	c-1.22-0.784-2.481-1.594-4.996-1.594c-2.513,0-3.773,0.811-4.992,1.594c-1.124,0.723-2.186,1.406-4.339,1.406	s-3.215-0.683-4.34-1.406c-1.219-0.784-2.48-1.594-4.994-1.594c-2.513,0-3.774,0.811-4.992,1.594	c-1.124,0.723-2.186,1.406-4.338,1.406c-2.151,0-3.213-1.074-4.337-1.798c-0.545-0.35-1.097-0.706-1.766-0.992	C5.734,42.567,4,43.531,4,45.008V53c0,1.105,1.003,2,2.24,2h51.52c1.237,0,2.24-0.895,2.24-2v-7.992c0-1.477-1.733-2.44-3.225-1.803	C56.104,43.492,55.55,43.848,55.004,44.199z"/><path d="M60,53v-7.992c0-0.363-0.107-0.694-0.287-0.979C57.088,44.181,55,46.337,55,49v1H34	c-2.762,0-5,2.239-5,5h28.76C58.997,55,60,54.105,60,53z" opacity=".15"/><path fill="#68e5fd" d="M30.663,18c1.466,0,2.981,1.635,4.045,3.09c1.713,2.343,3.613,2.391,4.765,1.901	C40.459,22.526,41,22,41,22s2,2,5,2s5-2,5-5s-3-9-12-9c-16,0-21,13-25,21c-2.5,5-5.781,6.875-7.891,7.578	c-1.229,0.41-2.033,1.585-2.038,2.88c-0.004,1.139-0.021,2.474-0.037,3.548C19,45.006,21.404,18,30.663,18z"/><path fill="#fff" d="M39,15c2.51,0,4.569-1.855,4.926-4.266C42.529,10.281,40.907,10,39,10	c-13.339,0-19.03,9.033-22.873,16.674c0.758,0.415,1.577,0.624,2.39,0.624c1.688,0,3.336-0.855,4.277-2.403	C27.011,17.959,31.857,15,39,15z" opacity=".3"/><path fill="none" stroke="#fff" stroke-linecap="round" stroke-linejoin="round" stroke-miterlimit="10" stroke-width="3" d="M32.023,14.663c1.511-0.554,3.185-0.931,5.048-1.085"/><path fill="none" stroke="#37d0ee" stroke-linecap="round" stroke-linejoin="round" stroke-miterlimit="10" stroke-width="3" d="M32.5,27.5c0,0,1,7,7,10"/></svg>