<svg xmlns="http://www.w3.org/2000/svg" xmlns:xlink="http://www.w3.org/1999/xlink" viewBox="0,0,256,256" width="64px" height="64px"><g fill="none" fill-rule="nonzero" stroke="none" stroke-width="1" stroke-linecap="butt" stroke-linejoin="miter" stroke-miterlimit="10" stroke-dasharray="" stroke-dashoffset="0" font-family="none" font-weight="none" font-size="none" text-anchor="none" style="mix-blend-mode: normal"><g><path d="M120.359,5.578c-4.293,0.278 -7.539,4.034 -7.539,8.335v57.315c0,0.383 -0.01,0.764 -0.03,1.142c-0.456,8.813 -13.74,8.292 -13.74,-0.533v-57.923c0,-4.302 -3.246,-8.058 -7.539,-8.335c-4.704,-0.304 -8.614,3.42 -8.614,8.059v58.201c0,8.825 -13.284,9.346 -13.74,0.533c-0.02,-0.378 -0.03,-0.759 -0.03,-1.142v-57.316c0,-4.302 -3.246,-8.058 -7.539,-8.335c-4.704,-0.304 -8.614,3.42 -8.614,8.059v56.954c0,15.653 9.317,29.391 22.789,35.406v129.232c0,8.4 6.81,15.209 15.209,15.209c8.399,0 15.209,-6.809 15.209,-15.209v-129.193c13.401,-5.878 22.79,-19.263 22.79,-34.809v-57.591c0.002,-4.638 -3.908,-8.363 -8.612,-8.059z" fill="#a4a4a4"></path><path d="M177.639,250.439v0c-8.4,0 -15.209,-6.809 -15.209,-15.209v-86.986h30.419v86.986c-0.001,8.4 -6.81,15.209 -15.21,15.209z" fill="#696767"></path><path d="M183.096,5.561h-20.667c0,29.467 0,111.876 0,142.683h19.238v-31.85h1.428c11.006,0 19.929,-8.922 19.929,-19.929v-70.976c0.001,-11.006 -8.921,-19.928 -19.928,-19.928z" fill="#a4a4a4"></path><path d="M98.47,248.46c-2.21,1.26 -4.77,1.98 -7.5,1.98c-8.4,0 -15.21,-6.81 -15.21,-15.21v-129.23c-13.47,-6.02 -22.78,-19.76 -22.78,-35.41v-56.95c0,-4.64 3.9,-8.37 8.61,-8.06c3.18,0.21 5.79,2.32 6.93,5.16c-0.35,0.9 -0.54,1.88 -0.54,2.9v56.95c0,15.65 9.31,29.39 22.78,35.41v129.23c0,5.67 3.1,10.62 7.71,13.23z" fill="#737373"></path><path d="M185.14,248.46c-2.21,1.26 -4.77,1.98 -7.5,1.98c-8.4,0 -15.21,-6.81 -15.21,-15.21v-86.99h15v86.99c0,5.67 3.11,10.62 7.71,13.23z" fill="#858585"></path><rect x="162.43" y="5.56" width="15" height="142.68" fill="#737373"></rect><g fill="#040404"><path d="M120.101,1.587c-6.326,0.41 -11.281,5.824 -11.281,12.327c0,61.218 0.013,57.532 -0.024,58.25c-0.123,2.374 -2.041,2.575 -2.842,2.56c-0.681,-0.018 -2.904,-0.277 -2.904,-2.885v-57.925c0,-6.503 -4.955,-11.917 -11.281,-12.327c-7.106,-0.463 -12.872,5.203 -12.872,12.051v58.201c0,2.608 -2.223,2.868 -2.904,2.885c-0.815,0.028 -2.718,-0.187 -2.841,-2.559c-0.016,-0.31 -0.024,-0.622 -0.024,-0.936v-57.315c0,-6.503 -4.955,-11.917 -11.281,-12.327c-7.119,-0.463 -12.872,5.213 -12.872,12.05v56.954c0,16.356 9.289,30.718 22.785,37.854v126.785c0,10.592 8.618,19.21 19.21,19.21c10.592,0 19.21,-8.618 19.21,-19.21v-126.647c13.243,-6.844 22.793,-20.746 22.793,-37.354v-57.592c0,-6.827 -5.747,-12.516 -12.872,-12.05zM102.18,235.23c0,6.181 -5.029,11.21 -11.21,11.21c-6.182,0 -11.21,-5.029 -11.21,-11.21v-123.562c3.659,1.041 7.399,1.56 11.223,1.56c3.837,0 7.593,-0.524 11.197,-1.519zM124.973,71.229c0,19.187 -15.846,34.386 -34.657,33.993c-18.384,-0.349 -33.341,-15.884 -33.341,-34.63v-56.955c0,-2.26 1.826,-4.076 4.079,-4.076c2.305,0 4.074,2.062 4.074,4.353c0,61.652 -0.017,57.663 0.035,58.664c0.354,6.837 5.847,10.272 11.037,10.143c5.316,-0.138 10.697,-3.92 10.697,-10.883v-58.201c0,-2.344 1.971,-4.225 4.355,-4.067c2.094,0.135 3.797,2.084 3.797,4.344v57.924c0,6.963 5.381,10.745 10.697,10.883c5.212,0.118 10.684,-3.306 11.038,-10.144c0.052,-1.003 0.035,2.966 0.035,-58.663c0,-2.26 1.704,-4.208 3.797,-4.344c2.365,-0.159 4.355,1.707 4.355,4.067v57.592z"></path><path d="M183.096,1.561h-20.666c-2.209,0 -4,1.791 -4,4c0,11.067 0,220.239 0,229.669c0,10.592 8.617,19.209 19.209,19.209c10.592,0 19.209,-8.617 19.209,-19.209v-86.986c0,-2.209 -1.791,-4 -4,-4h-7.18v-23.987c11.989,-1.287 21.357,-11.466 21.357,-23.792v-70.976c0,-13.193 -10.734,-23.928 -23.929,-23.928zM188.848,235.23c0,6.181 -5.028,11.209 -11.209,11.209c-6.181,0 -11.209,-5.028 -11.209,-11.209v-82.986c12.367,0 10.859,0 22.418,0zM199.025,96.465c0,8.783 -7.146,15.929 -15.929,15.929h-1.428c-2.209,0 -4,1.791 -4,4v27.85h-11.238v-134.683h16.667c8.783,0 15.929,7.146 15.929,15.928v70.976z"></path><path d="M90.974,206.018c-2.209,0 -4,1.791 -4,4v20c0,2.209 1.791,4 4,4c2.209,0 4,-1.791 4,-4v-20c0,-2.209 -1.791,-4 -4,-4z"></path><path d="M86.974,189.185v5.833c0,2.209 1.791,4 4,4c2.209,0 4,-1.791 4,-4v-5.833c0,-2.209 -1.791,-4 -4,-4c-2.209,0 -4,1.791 -4,4z"></path></g></g></g></svg>