<svg xmlns="http://www.w3.org/2000/svg"  viewBox="0 0 64 64" width="64px" height="64px"><radialGradient id="KZFAA_TnbcXQyVXpXsH1aa" cx="26.021" cy="36.66" r="16.528" gradientTransform="matrix(1 0 0 -1 0 66)" gradientUnits="userSpaceOnUse"><stop offset="0" stop-color="#afeeff"/><stop offset=".193" stop-color="#bbf1ff"/><stop offset=".703" stop-color="#d7f8ff"/><stop offset="1" stop-color="#e1faff"/></radialGradient><path fill="url(#KZFAA_TnbcXQyVXpXsH1aa)" d="M54.992,22H40v-5h4.83c1.624,0,3.081-1.216,3.165-2.839C48.086,12.431,46.71,11,45,11h-5	c-1.105,0-2-0.895-2-2l0,0c0-1.105,0.895-2,2-2h1.357c1.308,0,2.499-0.941,2.63-2.242C44.137,3.261,42.966,2,41.5,2H9.643	c-1.308,0-2.499,0.941-2.63,2.242C6.863,5.738,8.034,7,9.5,7H11c1.105,0,2,0.895,2,2l0,0c0,1.105-0.895,2-2,2H5.17	c-1.624,0-3.081,1.216-3.165,2.839C1.914,15.569,3.29,17,5,17h7v5H3.547C2.14,22,1,23.119,1,24.5S2.14,27,3.547,27H12v5H8.17	c-1.624,0-3.081,1.216-3.165,2.839C4.914,36.569,6.29,38,8,38h35c1.658,0,3.002-1.36,3-3.018C45.998,33.333,45.651,32,44,32h-5v-5	h12.426c1.407,0,2.547-1.119,2.547-2.5S56.398,22,54.992,22z"/><linearGradient id="KZFAA_TnbcXQyVXpXsH1ab" x1="32" x2="32" y1="-16.617" y2="25.345" gradientTransform="matrix(1 0 0 -1 0 66)" gradientUnits="userSpaceOnUse"><stop offset="0" stop-color="#e9ce8e"/><stop offset="0" stop-color="#e9ce8e"/><stop offset=".241" stop-color="#f1dca9"/><stop offset=".432" stop-color="#fff2d4"/><stop offset=".521" stop-color="#f9e8c0"/><stop offset=".782" stop-color="#fdefcf"/></linearGradient><path fill="url(#KZFAA_TnbcXQyVXpXsH1ab)" d="M62,57h-3.5c-0.828,0-1.5-0.672-1.5-1.5s0.672-1.5,1.5-1.5H59	c0.911,0,1.762-0.577,1.999-1.456c0.358-1.33-0.65-2.544-1.927-2.544H35v-2h-7v2h-8v-2l-8-4v6H5.072	c-0.911,0-1.762,0.577-1.999,1.456C2.715,52.786,3.723,54,5,54h0.5C6.328,54,7,54.672,7,55.5S6.328,57,5.5,57H2.072	c-0.911,0-1.762,0.577-1.999,1.456C-0.285,59.786,0.723,61,2,61h22h0.5h4h6h4H41h20.928c0.911,0,1.762-0.577,1.999-1.456	C64.285,58.214,63.277,57,62,57z"/><linearGradient id="KZFAA_TnbcXQyVXpXsH1ac" x1="25" x2="25" y1="57.809" y2="25.708" gradientTransform="matrix(1 0 0 -1 0 66)" gradientUnits="userSpaceOnUse"><stop offset="0" stop-color="#cdcdcd"/><stop offset=".419" stop-color="#bebebe"/><stop offset="1" stop-color="#aeaeae"/></linearGradient><polygon fill="url(#KZFAA_TnbcXQyVXpXsH1ac)" points="38.933,21.576 37.696,17.771 27,21.247 27,10 23,10 23,21.247 12.303,17.771 11.067,21.576 21.764,25.052 15.153,34.15 18.389,36.502 25,27.403 31.61,36.502 34.847,34.15 28.236,25.052"/><linearGradient id="KZFAA_TnbcXQyVXpXsH1ad" x1="25" x2="25" y1="46.915" y2="39.425" gradientTransform="matrix(1 0 0 -1 0 66)" gradientUnits="userSpaceOnUse"><stop offset="0" stop-color="#cdcdcd"/><stop offset=".419" stop-color="#bebebe"/><stop offset="1" stop-color="#aeaeae"/></linearGradient><circle cx="25" cy="24" r="5" fill="url(#KZFAA_TnbcXQyVXpXsH1ad)"/><linearGradient id="KZFAA_TnbcXQyVXpXsH1ae" x1="25" x2="25" y1="57.425" y2="26.87" gradientTransform="matrix(1 0 0 -1 0 66)" gradientUnits="userSpaceOnUse"><stop offset="0" stop-color="#cdcdcd"/><stop offset=".419" stop-color="#bebebe"/><stop offset="1" stop-color="#aeaeae"/></linearGradient><path fill="url(#KZFAA_TnbcXQyVXpXsH1ae)" d="M25,40c-8.822,0-16-7.178-16-16S16.178,8,25,8s16,7.178,16,16S33.822,40,25,40z M25,12	c-6.617,0-12,5.383-12,12s5.383,12,12,12s12-5.383,12-12S31.617,12,25,12z"/><linearGradient id="KZFAA_TnbcXQyVXpXsH1af" x1="25" x2="25" y1="40.014" y2="74.85" gradientTransform="matrix(1 0 0 -1 0 66)" gradientUnits="userSpaceOnUse"><stop offset="0" stop-color="#ff634d"/><stop offset=".204" stop-color="#fe6464"/><stop offset=".521" stop-color="#fc6581"/><stop offset=".794" stop-color="#fa6694"/><stop offset=".989" stop-color="#fa669a"/><stop offset="1" stop-color="#fa669a"/></linearGradient><path fill="url(#KZFAA_TnbcXQyVXpXsH1af)" d="M23,6h4c1.105,0,2,0.895,2,2v4c0,1.105-0.895,2-2,2h-4c-1.105,0-2-0.895-2-2V8	C21,6.895,21.895,6,23,6z"/><linearGradient id="KZFAA_TnbcXQyVXpXsH1ag" x1="33" x2="33" y1="15.014" y2="49.849" gradientTransform="matrix(1 0 0 -1 0 66)" gradientUnits="userSpaceOnUse"><stop offset="0" stop-color="#ff634d"/><stop offset=".204" stop-color="#fe6464"/><stop offset=".521" stop-color="#fc6581"/><stop offset=".794" stop-color="#fa6694"/><stop offset=".989" stop-color="#fa669a"/><stop offset="1" stop-color="#fa669a"/></linearGradient><path fill="url(#KZFAA_TnbcXQyVXpXsH1ag)" d="M31,31h4c1.105,0,2,0.895,2,2v4c0,1.105-0.895,2-2,2h-4c-1.105,0-2-0.895-2-2v-4	C29,31.895,29.895,31,31,31z"/><linearGradient id="KZFAA_TnbcXQyVXpXsH1ah" x1="17" x2="17" y1="15.014" y2="49.849" gradientTransform="matrix(1 0 0 -1 0 66)" gradientUnits="userSpaceOnUse"><stop offset="0" stop-color="#ff634d"/><stop offset=".204" stop-color="#fe6464"/><stop offset=".521" stop-color="#fc6581"/><stop offset=".794" stop-color="#fa6694"/><stop offset=".989" stop-color="#fa669a"/><stop offset="1" stop-color="#fa669a"/></linearGradient><path fill="url(#KZFAA_TnbcXQyVXpXsH1ah)" d="M15,31h4c1.105,0,2,0.895,2,2v4c0,1.105-0.895,2-2,2h-4c-1.105,0-2-0.895-2-2v-4	C13,31.895,13.895,31,15,31z"/><linearGradient id="KZFAA_TnbcXQyVXpXsH1ai" x1="12" x2="12" y1="34.872" y2="58.855" gradientTransform="matrix(1 0 0 -1 0 66)" gradientUnits="userSpaceOnUse"><stop offset="0" stop-color="#ff634d"/><stop offset=".204" stop-color="#fe6464"/><stop offset=".521" stop-color="#fc6581"/><stop offset=".794" stop-color="#fa6694"/><stop offset=".989" stop-color="#fa669a"/><stop offset="1" stop-color="#fa669a"/></linearGradient><path fill="url(#KZFAA_TnbcXQyVXpXsH1ai)" d="M8,22v-4c0-1.105,0.895-2,2-2h4c1.105,0,2,0.895,2,2v4c0,1.105-0.895,2-2,2h-4	C8.895,24,8,23.105,8,22z"/><linearGradient id="KZFAA_TnbcXQyVXpXsH1aj" x1="38" x2="38" y1="32.894" y2="61.227" gradientTransform="matrix(1 0 0 -1 0 66)" gradientUnits="userSpaceOnUse"><stop offset="0" stop-color="#ff634d"/><stop offset=".204" stop-color="#fe6464"/><stop offset=".521" stop-color="#fc6581"/><stop offset=".794" stop-color="#fa6694"/><stop offset=".989" stop-color="#fa669a"/><stop offset="1" stop-color="#fa669a"/></linearGradient><path fill="url(#KZFAA_TnbcXQyVXpXsH1aj)" d="M34,22v-4c0-1.105,0.895-2,2-2h4c1.105,0,2,0.895,2,2v4c0,1.105-0.895,2-2,2h-4	C34.895,24,34,23.105,34,22z"/><linearGradient id="KZFAA_TnbcXQyVXpXsH1ak" x1="12" x2="12" y1="9" y2="25" gradientTransform="matrix(1 0 0 -1 0 66)" gradientUnits="userSpaceOnUse"><stop offset="0" stop-color="#ff9757"/><stop offset="1" stop-color="#ffb65b"/></linearGradient><path fill="url(#KZFAA_TnbcXQyVXpXsH1ak)" d="M12,57c-1.104,0-2-0.896-2-2V43c0-1.104,0.896-2,2-2s2,0.896,2,2v12	C14,56.104,13.104,57,12,57z"/><linearGradient id="KZFAA_TnbcXQyVXpXsH1al" x1="20" x2="20" y1="9" y2="18" gradientTransform="matrix(1 0 0 -1 0 66)" gradientUnits="userSpaceOnUse"><stop offset="0" stop-color="#ff9757"/><stop offset="1" stop-color="#ffb65b"/></linearGradient><path fill="url(#KZFAA_TnbcXQyVXpXsH1al)" d="M20,57c-1.104,0-2-0.896-2-2v-5c0-1.104,0.896-2,2-2s2,0.896,2,2v5	C22,56.104,21.104,57,20,57z"/><linearGradient id="KZFAA_TnbcXQyVXpXsH1am" x1="28" x2="28" y1="9" y2="19" gradientTransform="matrix(1 0 0 -1 0 66)" gradientUnits="userSpaceOnUse"><stop offset="0" stop-color="#ff9757"/><stop offset="1" stop-color="#ffb65b"/></linearGradient><path fill="url(#KZFAA_TnbcXQyVXpXsH1am)" d="M28,57c-1.104,0-2-0.896-2-2v-6c0-1.104,0.896-2,2-2s2,0.896,2,2v6	C30,56.104,29.104,57,28,57z"/><linearGradient id="KZFAA_TnbcXQyVXpXsH1an" x1="36" x2="36" y1="9" y2="22" gradientTransform="matrix(1 0 0 -1 0 66)" gradientUnits="userSpaceOnUse"><stop offset="0" stop-color="#ff9757"/><stop offset="1" stop-color="#ffb65b"/></linearGradient><path fill="url(#KZFAA_TnbcXQyVXpXsH1an)" d="M36,57c-1.104,0-2-0.896-2-2v-9c0-1.104,0.896-2,2-2s2,0.896,2,2v9	C38,56.104,37.104,57,36,57z"/><linearGradient id="KZFAA_TnbcXQyVXpXsH1ao" x1="44" x2="44" y1="9" y2="32" gradientTransform="matrix(1 0 0 -1 0 66)" gradientUnits="userSpaceOnUse"><stop offset="0" stop-color="#ff9757"/><stop offset="1" stop-color="#ffb65b"/></linearGradient><path fill="url(#KZFAA_TnbcXQyVXpXsH1ao)" d="M44,57c-1.104,0-2-0.896-2-2V36c0-1.104,0.896-2,2-2s2,0.896,2,2v19	C46,56.104,45.104,57,44,57z"/><linearGradient id="KZFAA_TnbcXQyVXpXsH1ap" x1="52" x2="52" y1="9" y2="43" gradientTransform="matrix(1 0 0 -1 0 66)" gradientUnits="userSpaceOnUse"><stop offset="0" stop-color="#ff9757"/><stop offset="1" stop-color="#ffb65b"/></linearGradient><path fill="url(#KZFAA_TnbcXQyVXpXsH1ap)" d="M51.332,56.892C50.511,56.625,50,55.796,50,54.932V25.068c0-0.864,0.511-1.692,1.332-1.959	C52.719,22.657,54,23.679,54,25v30C54,56.321,52.719,57.343,51.332,56.892z"/><linearGradient id="KZFAA_TnbcXQyVXpXsH1aq" x1="32" x2="32" y1="5.17" y2="22.132" gradientTransform="matrix(1 0 0 -1 0 66)" gradientUnits="userSpaceOnUse"><stop offset="0" stop-color="#feaa53"/><stop offset=".612" stop-color="#ffcd49"/><stop offset="1" stop-color="#ffde44"/></linearGradient><path fill="url(#KZFAA_TnbcXQyVXpXsH1aq)" d="M25,51c-5.682,0-8.655-2.493-11.044-4.496C12.048,44.905,10.878,44,9,44	c-1.104,0-2-0.896-2-2s0.896-2,2-2c3.424,0,5.604,1.827,7.526,3.438C18.71,45.271,20.773,47,25,47	c10.74,0,14.406-7.12,17.952-14.005C45.736,27.59,48.614,22,55,22c1.104,0,2,0.896,2,2s-0.896,2-2,2	c-3.756,0-5.674,3.354-8.491,8.826C42.798,42.032,38.179,51,25,51z"/><radialGradient id="KZFAA_TnbcXQyVXpXsH1ar" cx="26.021" cy="36.66" r="16.528" gradientTransform="matrix(1 0 0 -1 0 66)" gradientUnits="userSpaceOnUse"><stop offset="0" stop-color="#afeeff"/><stop offset=".193" stop-color="#bbf1ff"/><stop offset=".703" stop-color="#d7f8ff"/><stop offset="1" stop-color="#e1faff"/></radialGradient><path fill="url(#KZFAA_TnbcXQyVXpXsH1ar)" d="M54,17L54,17c-1.657,0-3-1.343-3-3l0,0c0-1.657,1.343-3,3-3l0,0c1.657,0,3,1.343,3,3l0,0	C57,15.657,55.657,17,54,17z"/></svg>