<svg xmlns="http://www.w3.org/2000/svg" xmlns:xlink="http://www.w3.org/1999/xlink" viewBox="0,0,256,256" width="50px" height="50px"><g fill="#f22f2f" fill-rule="nonzero" stroke="none" stroke-width="1" stroke-linecap="butt" stroke-linejoin="miter" stroke-miterlimit="10" stroke-dasharray="" stroke-dashoffset="0" font-family="none" font-weight="none" font-size="none" text-anchor="none" style="mix-blend-mode: normal"><g transform="scale(5.12,5.12)"><path d="M14,4c-5.514,0 -10,4.486 -10,10v22c0,5.514 4.486,10 10,10h22c5.514,0 10,-4.486 10,-10v-22c0,-5.514 -4.486,-10 -10,-10zM21.13281,13h7.73438c0.873,0 1.69353,0.46489 2.14453,1.21289l1.83398,3.06055c0.269,0.448 0.76311,0.72656 1.28711,0.72656h5.36719c0.827,0 1.5,0.673 1.5,1.5v16c0,0.827 -0.673,1.5 -1.5,1.5h-29c-0.827,0 -1.5,-0.673 -1.5,-1.5v-16c0,-0.827 0.673,-1.5 1.5,-1.5h5.36719c0.523,0 1.01811,-0.27852 1.28711,-0.72852l1.83398,-3.05859c0.45,-0.748 1.27153,-1.21289 2.14453,-1.21289zM12,14h2c0.552,0 1,0.448 1,1v1h-4v-1c0,-0.552 0.448,-1 1,-1zM34,19.5c-0.55228,0 -1,0.44772 -1,1c0,0.55228 0.44772,1 1,1c0.55228,0 1,-0.44772 1,-1c0,-0.55228 -0.44772,-1 -1,-1zM25,20c-4.136,0 -7.5,3.364 -7.5,7.5c0,4.136 3.364,7.5 7.5,7.5c4.136,0 7.5,-3.364 7.5,-7.5c0,-4.136 -3.364,-7.5 -7.5,-7.5zM25,22c3.032,0 5.5,2.468 5.5,5.5c0,3.032 -2.468,5.5 -5.5,5.5c-3.032,0 -5.5,-2.468 -5.5,-5.5c0,-3.032 2.468,-5.5 5.5,-5.5z"></path></g></g></svg>