<svg xmlns="http://www.w3.org/2000/svg" xmlns:xlink="http://www.w3.org/1999/xlink" viewBox="0,0,256,256" width="48px" height="48px"><g fill="#1c5718" fill-rule="nonzero" stroke="none" stroke-width="1" stroke-linecap="butt" stroke-linejoin="miter" stroke-miterlimit="10" stroke-dasharray="" stroke-dashoffset="0" font-family="none" font-weight="none" font-size="none" text-anchor="none" style="mix-blend-mode: normal"><path d="M57.6,256c-31.8116,0 -57.6,-25.7884 -57.6,-57.6v-140.8c0,-31.8116 25.7884,-57.6 57.6,-57.6h140.8c31.8116,0 57.6,25.7884 57.6,57.6v140.8c0,31.8116 -25.7884,57.6 -57.6,57.6z" id="shape"></path></g><g fill="none" fill-rule="nonzero" stroke="none" stroke-width="1" stroke-linecap="butt" stroke-linejoin="miter" stroke-miterlimit="10" stroke-dasharray="" stroke-dashoffset="0" font-family="none" font-weight="none" font-size="none" text-anchor="none" style="mix-blend-mode: normal"><g transform="scale(5.33333,5.33333)"><path d="M5,19h38v19h-38z" fill="#cfd8dc"></path><path d="M5,38h38v4h-38z" fill="#b0bec5"></path><path d="M27,24h12v18h-12z" fill="#455a64"></path><path d="M9,24h14v11h-14z" fill="#e3f2fd"></path><path d="M10,25h12v9h-12z" fill="#1e88e5"></path><path d="M36.5,33.5c-0.3,0 -0.5,0.2 -0.5,0.5v2c0,0.3 0.2,0.5 0.5,0.5c0.3,0 0.5,-0.2 0.5,-0.5v-2c0,-0.3 -0.2,-0.5 -0.5,-0.5z" fill="#90a4ae"></path><path d="M24,16c-1.65685,0 -3,1.34315 -3,3c0,1.65685 1.34315,3 3,3c1.65685,0 3,-1.34315 3,-3c0,-1.65685 -1.34315,-3 -3,-3zM36,16c-1.65685,0 -3,1.34315 -3,3c0,1.65685 1.34315,3 3,3c1.65685,0 3,-1.34315 3,-3c0,-1.65685 -1.34315,-3 -3,-3zM12,16c-1.65685,0 -3,1.34315 -3,3c0,1.65685 1.34315,3 3,3c1.65685,0 3,-1.34315 3,-3c0,-1.65685 -1.34315,-3 -3,-3z" fill="#558b2f"></path><path d="M40,6h-32c-1.1,0 -2,0.9 -2,2v3h36v-3c0,-1.1 -0.9,-2 -2,-2zM21,11h6v8h-6zM37,11h-5l1,8h6zM11,11h5l-1,8h-6z" fill="#7cb342"></path><g fill="#ffa000"><path d="M30,16c-1.65685,0 -3,1.34315 -3,3c0,1.65685 1.34315,3 3,3c1.65685,0 3,-1.34315 3,-3c0,-1.65685 -1.34315,-3 -3,-3zM45,19c0,1.7 -1.3,3 -3,3c-1.7,0 -3,-1.3 -3,-3c0,-1.7 1.3,-3 3,-3zM18,16c-1.65685,0 -3,1.34315 -3,3c0,1.65685 1.34315,3 3,3c1.65685,0 3,-1.34315 3,-3c0,-1.65685 -1.34315,-3 -3,-3zM3,19c0,1.7 1.3,3 3,3c1.7,0 3,-1.3 3,-3c0,-1.7 -1.3,-3 -3,-3z"></path></g><g fill="#ffc107"><path d="M32,11h-5v8h6zM42,11h-5l2,8h6zM16,11h5v8h-6zM6,11h5l-2,8h-6z"></path></g></g></g></svg>