<svg xmlns="http://www.w3.org/2000/svg" xmlns:xlink="http://www.w3.org/1999/xlink" viewBox="0 0 48 48" width="48px" height="48px"><defs><linearGradient id="wk8D4c8pNTUgT736sy9Htc" x1="9.5" x2="9.5" y1="7" y2="41" gradientTransform="matrix(1.03 0 0 1 14.212 0)" gradientUnits="userSpaceOnUse"><stop offset="0" stop-color="#7694fd"/><stop offset="1" stop-color="#2d56d4"/></linearGradient><linearGradient id="wk8D4c8pNTUgT736sy9Hta" x1="-7" x2="26" y1="24" y2="24" gradientTransform="matrix(1.03 0 0 1 14.212 0)" gradientUnits="userSpaceOnUse"><stop offset="0" stop-color="#90a5eb" stop-opacity="0"/><stop offset=".417" stop-color="#8ea4ea" stop-opacity=".013"/><stop offset=".567" stop-color="#899ee6" stop-opacity=".059"/><stop offset=".674" stop-color="#8095df" stop-opacity=".14"/><stop offset=".761" stop-color="#7289d4" stop-opacity=".256"/><stop offset=".835" stop-color="#6078c7" stop-opacity=".407"/><stop offset=".9" stop-color="#4b63b6" stop-opacity=".593"/><stop offset=".958" stop-color="#314ba3" stop-opacity=".809"/><stop offset="1" stop-color="#1b3692"/></linearGradient><linearGradient id="wk8D4c8pNTUgT736sy9Htd" x1="-733" x2="-700" y1="364" y2="364" gradientTransform="matrix(1.03 0 0 1 762.212 -340)" xlink:href="#wk8D4c8pNTUgT736sy9Hta"/><linearGradient id="wk8D4c8pNTUgT736sy9Hte" x1="-1063" x2="-1030" y1="-384" y2="-384" gradientTransform="matrix(1.03 0 0 1 1102.212 408)" xlink:href="#wk8D4c8pNTUgT736sy9Hta"/><linearGradient id="wk8D4c8pNTUgT736sy9Htf" x1="-337" x2="-304" y1="-724" y2="-724" gradientTransform="matrix(1.03 0 0 1 354.212 748)" xlink:href="#wk8D4c8pNTUgT736sy9Hta"/><linearGradient id="wk8D4c8pNTUgT736sy9Htb" x1="17.709" x2="17.709" y1="17.005" y2="30.995" gradientUnits="userSpaceOnUse"><stop offset="0" stop-color="#fff"/><stop offset=".325" stop-color="#fbfbfc"/><stop offset=".662" stop-color="#eeeef4"/><stop offset="1" stop-color="#dadae6"/></linearGradient><linearGradient id="wk8D4c8pNTUgT736sy9Htg" x1="32.348" x2="32.348" y1="16.812" y2="31.188" xlink:href="#wk8D4c8pNTUgT736sy9Htb"/></defs><g data-name="water closet"><rect width="34" height="34" x="7" y="7" fill="url(#wk8D4c8pNTUgT736sy9Htc)" rx="3"/><g opacity=".5"><rect width="34" height="34" x="7" y="7" fill="url(#wk8D4c8pNTUgT736sy9Hta)" rx="3"/><rect width="34" height="34" x="7" y="7" fill="url(#wk8D4c8pNTUgT736sy9Htd)" rx="3" transform="rotate(-90 24 24)"/><rect width="34" height="34" x="7" y="7" fill="url(#wk8D4c8pNTUgT736sy9Hte)" rx="3" transform="rotate(180 24 24)"/><rect width="34" height="34" x="7" y="7" fill="url(#wk8D4c8pNTUgT736sy9Htf)" rx="3" transform="rotate(90 24 24)"/></g><path fill="url(#wk8D4c8pNTUgT736sy9Htb)" d="M21.266,27.536l2.078-10.531h2.33L22.557,31H20.311L17.74,20.782,15.115,31H12.861L9.744,17.005h2.328l2.1,10.512,2.578-10.512h1.967Z"/><path fill="url(#wk8D4c8pNTUgT736sy9Htg)" d="M37.7,26.441a5.117,5.117,0,0,1-1.59,3.492,5.283,5.283,0,0,1-3.688,1.255,5.1,5.1,0,0,1-2.834-.793,5.15,5.15,0,0,1-1.89-2.254A8.387,8.387,0,0,1,27,24.749V23.443a8.49,8.49,0,0,1,.673-3.489,5.106,5.106,0,0,1,4.855-3.142,5.075,5.075,0,0,1,3.587,1.255,5.318,5.318,0,0,1,1.58,3.55H35.366a3.532,3.532,0,0,0-.845-2.177,2.732,2.732,0,0,0-1.993-.667,2.7,2.7,0,0,0-2.344,1.159,5.98,5.98,0,0,0-.837,3.4v1.241a6.325,6.325,0,0,0,.783,3.463,2.559,2.559,0,0,0,2.287,1.192,2.948,2.948,0,0,0,2.071-.643,3.418,3.418,0,0,0,.878-2.143Z"/></g></svg>