<svg xmlns="http://www.w3.org/2000/svg" xmlns:xlink="http://www.w3.org/1999/xlink" viewBox="0,0,256,256" width="48px" height="48px"><defs><linearGradient x1="10.122" y1="7.628" x2="25.684" y2="23.19" gradientUnits="userSpaceOnUse" id="color-1"><stop offset="0" stop-color="#eba600"></stop><stop offset="1" stop-color="#c28200"></stop></linearGradient><linearGradient x1="129.90586" y1="159.91934" x2="503.33198" y2="331.11519" gradientUnits="userSpaceOnUse" id="color-2"><stop offset="0" stop-color="#eba600"></stop><stop offset="1" stop-color="#c28200"></stop></linearGradient><linearGradient x1="34" y1="24.5" x2="43.39" y2="24.5" gradientUnits="userSpaceOnUse" id="color-3"><stop offset="0" stop-color="#92a3b0"></stop><stop offset="0.015" stop-color="#a3b5c4"></stop><stop offset="0.032" stop-color="#aec2d1"></stop><stop offset="0.046" stop-color="#b2c6d6"></stop></linearGradient><linearGradient x1="80.982" y1="264.5" x2="99.76" y2="264.5" gradientUnits="userSpaceOnUse" id="color-4"><stop offset="0" stop-color="#92a3b0"></stop><stop offset="0.015" stop-color="#a3b5c4"></stop><stop offset="0.032" stop-color="#aec2d1"></stop><stop offset="0.046" stop-color="#b2c6d6"></stop></linearGradient><linearGradient x1="117.104" y1="11" x2="132.282" y2="11" gradientUnits="userSpaceOnUse" id="color-5"><stop offset="0" stop-color="#92a3b0"></stop><stop offset="0.015" stop-color="#a3b5c4"></stop><stop offset="0.032" stop-color="#aec2d1"></stop><stop offset="0.046" stop-color="#b2c6d6"></stop></linearGradient><linearGradient x1="37.5" y1="30.476" x2="37.5" y2="39.146" gradientUnits="userSpaceOnUse" id="color-6"><stop offset="0" stop-color="#c26715"></stop><stop offset="0.346" stop-color="#be6015"></stop><stop offset="0.686" stop-color="#b54e16"></stop><stop offset="0.979" stop-color="#ad3f16"></stop></linearGradient><linearGradient x1="24" y1="34.961" x2="24" y2="42.995" gradientUnits="userSpaceOnUse" id="color-7"><stop offset="0" stop-color="#2aa4f4"></stop><stop offset="1" stop-color="#007ad9"></stop></linearGradient><linearGradient x1="15.553" y1="25.153" x2="20.271" y2="38.116" gradientUnits="userSpaceOnUse" id="color-8"><stop offset="0" stop-color="#ffcf54"></stop><stop offset="0.261" stop-color="#fdcb4d"></stop><stop offset="0.639" stop-color="#f7c13a"></stop><stop offset="1" stop-color="#f0b421"></stop></linearGradient><linearGradient x1="402.13557" y1="232.13534" x2="529.05646" y2="450.04826" gradientUnits="userSpaceOnUse" id="color-9"><stop offset="0" stop-color="#ffcf54"></stop><stop offset="0.261" stop-color="#fdcb4d"></stop><stop offset="0.639" stop-color="#f7c13a"></stop><stop offset="1" stop-color="#f0b421"></stop></linearGradient><linearGradient x1="742.49021" y1="14.50188" x2="971.3082" y2="276.40373" gradientUnits="userSpaceOnUse" id="color-10"><stop offset="0" stop-color="#ffcf54"></stop><stop offset="0.261" stop-color="#fdcb4d"></stop><stop offset="0.639" stop-color="#f7c13a"></stop><stop offset="1" stop-color="#f0b421"></stop></linearGradient><linearGradient x1="59.248" y1="268.981" x2="93.792" y2="363.885" gradientUnits="userSpaceOnUse" id="color-11"><stop offset="0" stop-color="#eba600"></stop><stop offset="1" stop-color="#c28200"></stop></linearGradient><linearGradient x1="142.014" y1="32.044" x2="158.134" y2="48.164" gradientUnits="userSpaceOnUse" id="color-12"><stop offset="0" stop-color="#2aa4f4"></stop><stop offset="1" stop-color="#007ad9"></stop></linearGradient></defs><g fill="#262811" fill-rule="nonzero" stroke="none" stroke-width="1" stroke-linecap="butt" stroke-linejoin="miter" stroke-miterlimit="10" stroke-dasharray="" stroke-dashoffset="0" font-family="none" font-weight="none" font-size="none" text-anchor="none" style="mix-blend-mode: normal"><path d="M57.6,256c-31.8116,0 -57.6,-25.7884 -57.6,-57.6v-140.8c0,-31.8116 25.7884,-57.6 57.6,-57.6h140.8c31.8116,0 57.6,25.7884 57.6,57.6v140.8c0,31.8116 -25.7884,57.6 -57.6,57.6z" id="shape"></path></g><g fill="none" fill-rule="nonzero" stroke="none" stroke-width="1" stroke-linecap="butt" stroke-linejoin="miter" stroke-miterlimit="10" stroke-dasharray="" stroke-dashoffset="0" font-family="none" font-weight="none" font-size="none" text-anchor="none" style="mix-blend-mode: normal"><g transform="scale(5.33333,5.33333)"><rect x="35" y="19" width="5" height="2" fill="#64717c"></rect><rect x="35" y="14" width="5" height="2" fill="#64717c"></rect><rect x="35" y="24" width="5" height="2" fill="#64717c"></rect><rect x="35" y="29" width="5" height="2" fill="#64717c"></rect><path d="M26.99878,22.001c-0.24901,-0.00001 -0.49748,-0.02322 -0.74219,-0.06934l-16,-3c-2.1688,-0.4097 -3.59593,-2.49862 -3.18911,-4.66797c0.40682,-2.16935 2.49384,-3.59925 4.66372,-3.19531l16,3c2.0295,0.3808 3.43575,2.24364 3.2459,4.29982c-0.18985,2.05617 -1.91341,3.63004 -3.97832,3.6328z" fill="url(#color-1)"></path><path d="M26.99878,32.001c-0.24901,-0.00001 -0.49748,-0.02322 -0.74219,-0.06934l-16,-3c-2.1688,-0.4097 -3.59593,-2.49862 -3.18911,-4.66797c0.40682,-2.16935 2.49384,-3.59925 4.66372,-3.19531l16,3c2.0295,0.3808 3.43575,2.24364 3.2459,4.29982c-0.18985,2.05617 -1.91341,3.63004 -3.97832,3.6328z" fill="url(#color-2)"></path><rect x="34" y="11" width="2" height="27" fill="url(#color-3)"></rect><rect x="26.994" y="30" width="2" height="7" fill="url(#color-4)"></rect><rect x="39" y="11" width="2" height="27" fill="url(#color-5)"></rect><path d="M33,33h9c0.55228,0 1,0.44772 1,1v3.5h-11v-3.5c0,-0.55228 0.44772,-1 1,-1z" fill="url(#color-6)"></path><path d="M42,36c-1.07524,-0.03857 -2.11667,-0.38571 -3,-1c-0.88333,0.61429 -1.92476,0.96143 -3,1c-1.07524,-0.03857 -2.11667,-0.38571 -3,-1c-0.88333,0.61429 -1.92476,0.96143 -3,1c-1.07524,-0.03857 -2.11667,-0.38571 -3,-1c-0.88333,0.61429 -1.92476,0.96143 -3,1c-1.07524,-0.03857 -2.11667,-0.38571 -3,-1c-0.88333,0.61429 -1.92476,0.96143 -3,1c-1.07524,-0.03857 -2.11667,-0.38571 -3,-1c-0.88333,0.61429 -1.92476,0.96143 -3,1c-1.07524,-0.03857 -2.11667,-0.38571 -3,-1c-0.88333,0.61429 -1.92476,0.96143 -3,1c-1.07524,-0.03857 -2.11667,-0.38571 -3,-1v6c-0.00015,0.53048 0.21052,1.03927 0.58563,1.41437c0.3751,0.3751 0.8839,0.58577 1.41437,0.58563h38c0.53048,0.00015 1.03927,-0.21052 1.41437,-0.58563c0.3751,-0.3751 0.58577,-0.8839 0.58563,-1.41437v-6c-0.88333,0.61429 -1.92476,0.96143 -3,1z" fill="url(#color-7)"></path><path d="M9.00311,39.74023c-1.8996,0.0005 -3.53763,-1.3349 -3.91985,-3.19565c-0.38222,-1.86075 0.59676,-3.73372 2.34274,-4.48208l17.9927,-7.73926c1.31467,-0.56869 2.83308,-0.391 3.98092,0.46588c1.14784,0.85688 1.74987,2.26212 1.57839,3.68422c-0.17148,1.4221 -1.0903,2.64395 -2.40893,3.20342l-17.99274,7.73924c-0.49704,0.21353 -1.03228,0.32384 -1.57324,0.32423z" fill="url(#color-8)"></path><path d="M10.99585,29.001c-1.89406,0.00069 -3.52907,-1.32688 -3.91731,-3.18072c-0.38824,-1.85384 0.57667,-3.72591 2.31184,-4.48528l16,-7c1.3098,-0.57518 2.82705,-0.4072 3.9793,0.44058c1.15225,0.84778 1.76413,2.2463 1.60476,3.66793c-0.15936,1.42163 -1.0657,2.64996 -2.37707,3.22157l-16,7c-0.50502,0.22105 -1.05025,0.33541 -1.60153,0.33592z" fill="url(#color-9)"></path><path d="M42,10h-7.0061l-1.54413,-4.63245c-0.27223,-0.8167 -1.03653,-1.36756 -1.8974,-1.36755h-4.55847v0.00433c-0.55161,-0.00176 -1.0976,0.11082 -1.60352,0.33063l-16,7c-1.31137,0.57161 -2.21771,1.79995 -2.37707,3.22157c-0.15936,1.42163 0.45251,2.82015 1.60476,3.66793c1.15225,0.84778 2.6695,1.01576 3.9793,0.44058l15.23441,-6.66504h14.16821c0.55228,0 1,-0.44772 1,-1c0,-0.55228 -0.44772,-1 -1,-1z" fill="url(#color-10)"></path><circle cx="9" cy="35.749" r="4" fill="url(#color-11)"></circle><path d="M29.9939,6c1.10457,0 2,0.89543 2,2c0,1.10457 -0.89543,2 -2,2c-1.10457,0 -2,-0.89543 -2,-2c0,-1.10457 0.89543,-2 2,-2M29.9939,5c-1.65685,0 -3,1.34315 -3,3c0,1.65685 1.34315,3 3,3c1.65685,0 3,-1.34315 3,-3c-0.00187,-1.65608 -1.34392,-2.99813 -3,-3z" fill="#000000" opacity="0.05"></path><path d="M29.9939,6c1.10457,0 2,0.89543 2,2c0,1.10457 -0.89543,2 -2,2c-1.10457,0 -2,-0.89543 -2,-2c0,-1.10457 0.89543,-2 2,-2M29.9939,5.5c-1.38071,0 -2.5,1.11929 -2.5,2.5c0,1.38071 1.11929,2.5 2.5,2.5c1.38071,0 2.5,-1.11929 2.5,-2.5c-0.00155,-1.38007 -1.11993,-2.49845 -2.5,-2.5z" fill="#000000" opacity="0.07"></path><circle cx="29.994" cy="8" r="2" fill="url(#color-12)"></circle></g></g></svg>