<?xml version="1.0" encoding="iso-8859-1"?>
<!-- Uploaded to: SVG Repo, www.svgrepo.com, Generator: SVG Repo Mixer Tools -->
<svg version="1.1" id="Layer_1" xmlns="http://www.w3.org/2000/svg" xmlns:xlink="http://www.w3.org/1999/xlink" 
	 viewBox="0 0 512 512" xml:space="preserve">
<path style="fill:#E84731;" d="M467.649,348.996V13.876C467.649,6.244,461.405,0,453.774,0H58.226
	c-7.632,0-13.875,6.244-13.875,13.876v335.12H467.649z"/>
<path style="opacity:0.1;enable-background:new    ;" d="M89.24,348.996V13.876C89.24,6.244,95.484,0,103.116,0H58.227
	c-7.633,0-13.876,6.244-13.876,13.876v335.12H89.24z"/>
<rect x="85.974" y="41.626" style="fill:#B72F18;" width="340.052" height="307.367"/>
<rect x="85.974" y="41.626" style="opacity:0.1;enable-background:new    ;" width="33.698" height="307.367"/>
<path style="fill:#FFFFFF;" d="M256,204.792c-2.583,0-5.033-1.145-6.692-3.125l-47.438-56.664c-2.59-3.093-2.723-7.558-0.321-10.8
	l17.562-23.695c1.646-2.221,4.248-3.53,7.011-3.53h59.755c2.765,0,5.367,1.309,7.012,3.53l17.562,23.695
	c2.402,3.242,2.27,7.707-0.32,10.8l-47.44,56.664C261.033,203.646,258.584,204.792,256,204.792z"/>
<g>
	<path style="fill:#AADDE6;" d="M200.132,139.278h111.736l0.256-0.349c-0.09-1.665-0.626-3.312-1.674-4.726l-17.562-23.695
		c-1.646-2.221-4.246-3.53-7.012-3.53h-59.755c-2.765,0-5.366,1.309-7.011,3.53l-17.562,23.695
		c-1.116,1.507-1.661,3.277-1.691,5.051L200.132,139.278z"/>
	<path style="fill:#AADDE6;" d="M234.047,139.278l18.872,64.95c0.975,0.368,2.016,0.565,3.081,0.565
		c1.067,0,2.108-0.197,3.082-0.565l18.871-64.95H234.047z"/>
</g>
<polygon style="fill:#82BEC4;" points="264.411,106.977 247.59,106.977 234.047,139.278 277.953,139.278 "/>
<path style="fill:#F2DB79;" d="M165.575,348.996c-3.587-10.056-5.546-20.879-5.546-32.152c0-52.918,43.054-95.971,95.972-95.971
	c52.919,0,95.972,43.053,95.972,95.971c0,11.272-1.959,22.095-5.546,32.152h35.499c2.617-10.283,4.012-21.054,4.012-32.152
	c0-71.761-58.175-129.935-129.936-129.935c-71.76,0-129.936,58.174-129.936,129.935c0,11.098,1.395,21.869,4.012,32.152H165.575z"/>
<g>
	<path style="fill:#FFFFFF;" d="M382.174,168.792c-9.149,6.353-15.079,12.282-21.432,21.432c-1.376,1.982-4.301,1.982-5.677,0
		c-6.353-9.15-12.282-15.079-21.432-21.432c-1.982-1.376-1.982-4.301,0-5.677c9.15-6.353,15.079-12.282,21.432-21.432
		c1.376-1.982,4.301-1.982,5.677,0c6.353,9.15,12.283,15.079,21.432,21.432C384.156,164.492,384.156,167.416,382.174,168.792z"/>
	<path style="fill:#FFFFFF;" d="M152.242,167.331l-11.295-11.294c-1.346-1.346-1.346-3.529,0-4.874l11.293-11.293
		c1.346-1.346,3.529-1.346,4.874,0l11.294,11.294c1.346,1.346,1.346,3.529,0,4.874l-11.293,11.293
		C155.77,168.677,153.587,168.677,152.242,167.331z"/>
	<path style="fill:#FFFFFF;" d="M172.722,100.501l-14.529-14.527c-1.346-1.346-1.346-3.529,0-4.874l14.527-14.527
		c1.346-1.346,3.529-1.346,4.874,0L192.123,81.1c1.346,1.346,1.346,3.529,0,4.874l-14.526,14.527
		C176.25,101.847,174.067,101.847,172.722,100.501z"/>
</g>
<path style="fill:#AADDE6;" d="M442.623,348.996v-3.927c0-22.451-18.2-40.651-40.651-40.651H110.028
	c-22.452,0-40.651,18.2-40.651,40.651v3.927H442.623z"/>
<path style="fill:#AF3B2C;" d="M492.848,498.124c0,7.632-6.244,13.876-13.875,13.876H33.027c-7.632,0-13.875-6.244-13.875-13.876
	V357.679c0-7.632,6.244-13.875,13.875-13.875h445.945c7.632,0,13.875,6.243,13.875,13.875v140.445H492.848z"/>
<path style="fill:#F26F55;" d="M492.848,498.124c0,7.632-6.244,13.876-13.875,13.876H33.027c-7.632,0-13.875-6.244-13.875-13.876
	V357.679c0-7.632,6.244-13.875,13.875-13.875h445.945c7.632,0,13.875,6.243,13.875,13.875v140.445H492.848z"/>
<path style="fill:#FF8163;" d="M19.152,429.541v68.583c0,7.632,6.244,13.876,13.875,13.876h445.945
	c7.632,0,13.875-6.244,13.875-13.876v-68.583L19.152,429.541L19.152,429.541z"/>
<path style="fill:#FFCCCF;" d="M256,478.192c-1.572,0-3.08-0.624-4.192-1.736l-40.903-40.918
	c-5.781-5.778-8.966-13.465-8.966-21.638c0-8.172,3.184-15.857,8.967-21.638c5.782-5.779,13.471-8.962,21.648-8.962
	c8.178,0,15.867,3.183,21.648,8.962l1.797,1.798l1.797-1.798c5.781-5.779,13.469-8.962,21.648-8.962
	c8.177,0,15.866,3.183,21.648,8.962c5.781,5.78,8.967,13.466,8.967,21.638c0,8.173-3.186,15.859-8.967,21.638l-40.901,40.918
	C259.081,477.569,257.573,478.192,256,478.192z"/>
<path style="opacity:0.1;enable-background:new    ;" d="M231.551,425.728c-5.781-5.779-8.966-13.465-8.966-21.638
	c0-7.752,2.869-15.062,8.099-20.728c-7.473,0.448-14.438,3.564-19.778,8.9c-5.782,5.78-8.967,13.466-8.967,21.638
	c0,8.173,3.184,15.859,8.966,21.638l40.903,40.918c1.112,1.112,2.621,1.736,4.192,1.736c1.573,0,3.081-0.624,4.192-1.736
	l11.034-11.038L231.551,425.728z"/>
<path style="opacity:0.1;enable-background:new    ;" d="M64.135,498.124V357.679c0-7.632,6.244-13.875,13.875-13.875H33.027
	c-7.632,0-13.875,6.243-13.875,13.875v140.445c0,7.632,6.244,13.876,13.875,13.876H78.01C70.378,512,64.135,505.756,64.135,498.124z
	"/>
</svg>